<svg xmlns="http://www.w3.org/2000/svg" width="980" height="380" viewBox="0 0 980 380" role="img">
<rect width="100%" height="100%" rx="0" fill="#ffffff"/>

<text x="490.0" y="28.0" font-size="18" text-anchor="middle" fill="#0f172a">Monthly Revenue Trend</text>
<line x1="70" y1="55" x2="70" y2="305" stroke="#cbd5e1"/>
<line x1="70" y1="305" x2="945" y2="305" stroke="#cbd5e1"/>
<text x="15.0" y="63.0" font-size="11" text-anchor="start" fill="#334155">68,069</text>
<text x="15.0" y="305.0" font-size="11" text-anchor="start" fill="#334155">27,752</text>
<path d="M70.0,125.6 L100.2,228.3 L130.3,175.7 L160.5,305.0 L190.7,81.2 L220.9,170.1 L251.0,211.6 L281.2,140.1 L311.4,294.0 L341.6,150.9 L371.7,210.0 L401.9,205.8 L432.1,238.2 L462.2,248.2 L492.4,253.7 L522.6,169.4 L552.8,304.0 L582.9,55.0 L613.1,210.7 L643.3,278.7 L673.4,230.3 L703.6,246.2 L733.8,276.1 L764.0,236.6 L794.1,296.6 L824.3,258.1 L854.5,234.0 L884.7,279.8 L914.8,208.0 L945.0,148.1" fill="none" stroke="#0f766e" stroke-width="3"/>
<circle cx="70.0" cy="125.6" r="4" fill="#0f766e"/>
<circle cx="100.2" cy="228.3" r="4" fill="#0f766e"/>
<circle cx="130.3" cy="175.7" r="4" fill="#0f766e"/>
<circle cx="160.5" cy="305.0" r="4" fill="#0f766e"/>
<circle cx="190.7" cy="81.2" r="4" fill="#0f766e"/>
<circle cx="220.9" cy="170.1" r="4" fill="#0f766e"/>
<circle cx="251.0" cy="211.6" r="4" fill="#0f766e"/>
<circle cx="281.2" cy="140.1" r="4" fill="#0f766e"/>
<circle cx="311.4" cy="294.0" r="4" fill="#0f766e"/>
<circle cx="341.6" cy="150.9" r="4" fill="#0f766e"/>
<circle cx="371.7" cy="210.0" r="4" fill="#0f766e"/>
<circle cx="401.9" cy="205.8" r="4" fill="#0f766e"/>
<circle cx="432.1" cy="238.2" r="4" fill="#0f766e"/>
<circle cx="462.2" cy="248.2" r="4" fill="#0f766e"/>
<circle cx="492.4" cy="253.7" r="4" fill="#0f766e"/>
<circle cx="522.6" cy="169.4" r="4" fill="#0f766e"/>
<circle cx="552.8" cy="304.0" r="4" fill="#0f766e"/>
<circle cx="582.9" cy="55.0" r="4" fill="#0f766e"/>
<circle cx="613.1" cy="210.7" r="4" fill="#0f766e"/>
<circle cx="643.3" cy="278.7" r="4" fill="#0f766e"/>
<circle cx="673.4" cy="230.3" r="4" fill="#0f766e"/>
<circle cx="703.6" cy="246.2" r="4" fill="#0f766e"/>
<circle cx="733.8" cy="276.1" r="4" fill="#0f766e"/>
<circle cx="764.0" cy="236.6" r="4" fill="#0f766e"/>
<circle cx="794.1" cy="296.6" r="4" fill="#0f766e"/>
<circle cx="824.3" cy="258.1" r="4" fill="#0f766e"/>
<circle cx="854.5" cy="234.0" r="4" fill="#0f766e"/>
<circle cx="884.7" cy="279.8" r="4" fill="#0f766e"/>
<circle cx="914.8" cy="208.0" r="4" fill="#0f766e"/>
<circle cx="945.0" cy="148.1" r="4" fill="#0f766e"/>
<text x="70.0" y="344.0" font-size="10" text-anchor="middle" fill="#334155">2023-01</text>
<text x="190.7" y="344.0" font-size="10" text-anchor="middle" fill="#334155">2023-05</text>
<text x="311.4" y="344.0" font-size="10" text-anchor="middle" fill="#334155">2023-09</text>
<text x="432.1" y="344.0" font-size="10" text-anchor="middle" fill="#334155">2024-01</text>
<text x="552.8" y="344.0" font-size="10" text-anchor="middle" fill="#334155">2024-05</text>
<text x="673.4" y="344.0" font-size="10" text-anchor="middle" fill="#334155">2024-09</text>
<text x="794.1" y="344.0" font-size="10" text-anchor="middle" fill="#334155">2025-01</text>
<text x="914.8" y="344.0" font-size="10" text-anchor="middle" fill="#334155">2025-05</text>
<text x="945.0" y="344.0" font-size="10" text-anchor="middle" fill="#334155">2025-06</text>

</svg>
