<svg xmlns="http://www.w3.org/2000/svg" width="760" height="410" viewBox="0 0 760 410" role="img">
<rect width="100%" height="100%" rx="0" fill="#ffffff"/>
<text x="380.0" y="28.0" font-size="18" text-anchor="middle" fill="#0f172a">Order Status Share</text>
<path d="M 245 220 L 245.0 95.0 A 125 125 0 0 1 365.7 187.6 Z" fill="#0f766e" stroke="#ffffff" stroke-width="2"/>
<path d="M 245 220 L 365.7 187.6 A 125 125 0 0 1 309.2 327.3 Z" fill="#2563eb" stroke="#ffffff" stroke-width="2"/>
<path d="M 245 220 L 309.2 327.3 A 125 125 0 0 1 164.3 315.5 Z" fill="#7c3aed" stroke="#ffffff" stroke-width="2"/>
<path d="M 245 220 L 164.3 315.5 A 125 125 0 0 1 128.1 175.8 Z" fill="#ea580c" stroke="#ffffff" stroke-width="2"/>
<path d="M 245 220 L 128.1 175.8 A 125 125 0 0 1 245.0 95.0 Z" fill="#be123c" stroke="#ffffff" stroke-width="2"/>
<circle cx="245" cy="220" r="64" fill="#ffffff"/>
<text x="245.0" y="220.0" font-size="22" text-anchor="middle" fill="#0f172a">1,200</text>
<text x="245.0" y="244.0" font-size="12" text-anchor="middle" fill="#334155">orders</text>
<rect x="465" y="92" width="16" height="16" fill="#0f766e"/>
<text x="492.0" y="105.0" font-size="13" text-anchor="start" fill="#334155">Cancelled: 250 (20.8%)</text>
<rect x="465" y="134" width="16" height="16" fill="#2563eb"/>
<text x="492.0" y="147.0" font-size="13" text-anchor="start" fill="#334155">Returned: 247 (20.6%)</text>
<rect x="465" y="176" width="16" height="16" fill="#7c3aed"/>
<text x="492.0" y="189.0" font-size="13" text-anchor="start" fill="#334155">Pending: 237 (19.8%)</text>
<rect x="465" y="218" width="16" height="16" fill="#ea580c"/>
<text x="492.0" y="231.0" font-size="13" text-anchor="start" fill="#334155">Shipped: 235 (19.6%)</text>
<rect x="465" y="260" width="16" height="16" fill="#be123c"/>
<text x="492.0" y="273.0" font-size="13" text-anchor="start" fill="#334155">Delivered: 231 (19.2%)</text>
</svg>
